
<!-- Generator: visioncortex VTracer 0.6.4 -->
<svg version="1.1" xmlns="http://www.w3.org/2000/svg" viewBox="0 0 2000 373" preserveAspectRatio="xMidYMid meet">
<path d="M0 0 C3.635 2.908 5.386 5.184 6.895 9.641 C7.657 17.727 6.526 25.734 5.242 33.707 C4.979 35.405 4.979 35.405 4.711 37.137 C4.137 40.827 3.548 44.515 2.957 48.203 C2.547 50.795 2.138 53.387 1.729 55.979 C-6.097 105.332 -14.532 154.504 -28.105 202.641 C-28.302 203.34 -28.498 204.04 -28.7 204.761 C-29.874 208.948 -31.065 213.128 -32.283 217.302 C-32.836 219.2 -33.38 221.101 -33.924 223.002 C-36.843 232.788 -39.815 239.942 -48.699 245.391 C-59.289 250.892 -71.986 252.613 -83.543 249.391 C-88.889 247.548 -92.901 245.448 -96.105 240.641 C-96.336 237.825 -96.438 235.145 -96.418 232.328 C-96.411 231.073 -96.411 231.073 -96.403 229.793 C-96.106 213.276 -92.944 197.332 -88.517 181.468 C-87.996 179.465 -87.996 179.465 -88.105 176.641 C-88.662 177.365 -89.219 178.09 -89.793 178.836 C-97.513 188.617 -105.617 195.948 -118.105 198.641 C-121.415 198.882 -124.725 198.872 -128.043 198.891 C-129.384 198.922 -129.384 198.922 -130.752 198.953 C-139.402 199.004 -139.402 199.004 -143.105 195.641 C-144.652 192.863 -144.652 192.863 -145.855 189.703 C-146.466 188.143 -146.466 188.143 -147.09 186.551 C-147.893 184.249 -148.579 182.017 -149.105 179.641 C-149.765 179.641 -150.425 179.641 -151.105 179.641 C-151.205 180.722 -151.304 181.804 -151.406 182.918 C-152.11 188.51 -153.693 193.812 -155.293 199.203 C-155.608 200.267 -155.924 201.33 -156.249 202.426 C-167.552 239.884 -167.552 239.884 -181.105 247.641 C-193.96 254.212 -208.312 255.364 -222.105 251.016 C-227.086 249.01 -230.317 246.227 -233.105 241.641 C-236.333 231.958 -232.624 219.507 -230.523 209.871 C-230.259 208.652 -229.995 207.433 -229.723 206.177 C-226.703 192.477 -223.137 178.932 -219.48 165.391 C-219.129 164.082 -218.777 162.773 -218.425 161.465 C-192.413 64.705 -192.413 64.705 -169.891 33.164 C-168.01 30.506 -166.386 27.756 -164.73 24.953 C-157.733 14.006 -148.596 8.152 -136.168 4.863 C-125.249 2.642 -112.901 2.779 -103.105 8.641 C-99.699 12.367 -98.588 17.67 -98.105 22.641 C-98.93 26.351 -99.997 28.478 -102.105 31.641 C-102.35 34.581 -102.35 34.581 -102.23 37.934 C-102.214 39.197 -102.197 40.461 -102.18 41.763 C-102.167 42.428 -102.155 43.093 -102.142 43.779 C-101.938 55.207 -102.087 66.357 -104.105 77.641 C-103.5 76.587 -102.894 75.534 -102.27 74.449 C-62.736 6.191 -62.736 6.191 -31.543 -2.922 C-20.969 -5.293 -9.5 -6.133 0 0 Z M-87.105 173.641 C-86.105 175.641 -86.105 175.641 -86.105 175.641 Z " fill="#3C986F" transform="translate(760.10546875,25.359375)"/>
<path d="M0 0 C3.932 4.505 6 8.927 6 15 C4.768 21.158 2.481 25.624 -2 30 C-5.805 32.378 -8.511 33.396 -13 33 C-12.938 34.031 -12.876 35.062 -12.812 36.125 C-13.065 41.338 -14.434 44.387 -18.062 48.125 C-25.757 53.037 -33.641 55.075 -42.699 55.211 C-44.638 55.253 -44.638 55.253 -46.615 55.297 C-48.644 55.338 -50.673 55.375 -52.703 55.401 C-66.712 55.458 -66.712 55.458 -79 61.375 C-83.834 67.72 -83.718 74.29 -83 82 C-79.662 91.379 -69.812 97.567 -62.312 103.625 C-48.321 115.036 -38.952 127.732 -35.25 145.625 C-33.59 168.033 -41.394 190.51 -55.926 207.672 C-56.61 208.44 -57.295 209.208 -58 210 C-58.654 210.748 -59.307 211.495 -59.98 212.266 C-79.066 232.747 -107.757 242.317 -135.109 243.324 C-148.241 243.61 -160.56 243.538 -173 239 C-174.305 238.532 -174.305 238.532 -175.637 238.055 C-187.406 233.299 -196.655 225.75 -202.055 214.234 C-205.204 206.791 -204.905 198.849 -202.5 191.188 C-199.735 184.426 -195.33 180.445 -188.688 177.562 C-177.73 175.891 -167.236 177.941 -156.47 179.939 C-139.416 183.073 -125.111 181.24 -110.523 171.207 C-108.116 169.299 -106.484 167.709 -105 165 C-104.743 160.452 -105.902 157.707 -108.688 154.25 C-112.49 150.208 -116.841 146.919 -121.238 143.564 C-139.616 129.385 -158.613 112.066 -162 88 C-163.536 63.546 -157.016 38.161 -141.008 19.262 C-140.014 18.142 -140.014 18.142 -139 17 C-138.42 16.326 -137.84 15.652 -137.242 14.957 C-104.927 -20.086 -36.908 -32.841 0 0 Z " fill="#3C986F" transform="translate(1219,38)"/>
<path d="M0 0 C3.49 2.772 5.505 5.303 6.757 9.595 C7.085 14.195 5.685 17.277 3.879 21.449 C3.541 22.261 3.204 23.073 2.856 23.91 C1.772 26.509 0.668 29.098 -0.438 31.688 C-1.147 33.378 -1.854 35.068 -2.561 36.76 C-8.13 50.058 -8.13 50.058 -10.963 56.432 C-17.136 70.458 -21.819 84.969 -26.529 99.533 C-27.407 102.24 -28.294 104.944 -29.181 107.648 C-34.905 125.102 -34.905 125.102 -40.113 142.715 C-40.314 143.432 -40.515 144.148 -40.722 144.887 C-41.482 147.692 -42 150.078 -42 153 C-41.481 152.348 -40.961 151.695 -40.426 151.023 C-39.728 150.149 -39.031 149.275 -38.312 148.375 C-37.286 147.087 -37.286 147.087 -36.238 145.773 C-35.5 144.858 -34.761 143.943 -34 143 C-33.216 141.995 -32.432 140.989 -31.625 139.953 C-22.965 130.21 -9.594 122.716 3.453 121.742 C17.147 121.326 26.682 124.966 37 134 C44.97 142.521 47.408 151.958 47.359 163.438 C46.773 174.276 43.77 185.109 41.401 195.672 C40.211 201.188 39.649 206.421 39.688 212.062 C39.689 212.873 39.69 213.684 39.691 214.519 C39.791 220.902 40.696 226.946 41.917 233.197 C43.489 241.277 44.41 248.009 40.207 255.375 C37.556 258.944 34.183 260.106 30 261 C17.483 262.406 5.737 257.65 -4 250 C-12.033 242.535 -15.424 234.214 -17.25 223.562 C-17.419 222.607 -17.588 221.651 -17.762 220.667 C-19.243 211.69 -20.937 200.812 -18 192 C-35.285 201.838 -48.253 213.17 -56 232 C-56.685 234.57 -57.138 237.13 -57.625 239.75 C-59.153 246.328 -59.153 246.328 -61.984 248.574 C-64.375 249.438 -64.375 249.438 -67.031 250.117 C-70.688 251.205 -73.66 253.072 -76.875 255.062 C-87.786 261.552 -99.298 263.874 -111.68 260.746 C-121.499 257.589 -129.668 252.076 -134.5 242.75 C-138.277 232.512 -135.424 221.853 -132.75 211.688 C-132.49 210.676 -132.49 210.676 -132.225 209.644 C-127.491 191.234 -121.839 173.085 -116 155 C-115.782 154.325 -115.564 153.65 -115.34 152.954 C-102.299 112.672 -86.571 71.957 -63.078 36.555 C-58.745 29.948 -56.123 25.583 -57.695 17.43 C-58.137 13.91 -57.213 11.77 -55.414 8.777 C-43.73 -5.908 -15.962 -8.612 0 0 Z " fill="#3C976F" transform="translate(1466,16)"/>
<path d="M0 0 C3.275 2.818 5.442 5.047 5.925 9.497 C5.983 12.046 5.949 14.576 5.875 17.125 C5.861 18.009 5.848 18.892 5.834 19.803 C5.799 21.973 5.745 24.143 5.688 26.312 C6.389 26.266 7.09 26.22 7.812 26.172 C15.611 25.875 20.779 26.758 26.629 32.078 C33.556 39.424 35.139 46.667 35.075 56.47 C35.083 57.965 35.083 57.965 35.091 59.489 C35.106 62.813 35.099 66.137 35.092 69.46 C35.097 71.849 35.104 74.238 35.112 76.627 C35.128 82.434 35.13 88.241 35.125 94.048 C35.121 98.77 35.123 103.492 35.128 108.215 C35.129 108.888 35.129 109.561 35.13 110.255 C35.132 111.622 35.133 112.99 35.135 114.358 C35.148 127.174 35.143 139.989 35.132 152.804 C35.122 164.514 35.135 176.224 35.159 187.935 C35.183 199.974 35.193 212.013 35.186 224.053 C35.182 230.806 35.185 237.559 35.202 244.312 C35.218 250.663 35.214 257.014 35.195 263.366 C35.191 265.693 35.194 268.021 35.205 270.349 C35.218 273.533 35.206 276.716 35.189 279.901 C35.198 280.815 35.208 281.73 35.218 282.673 C35.113 291.876 32.355 299.342 25.762 305.84 C19.066 310.594 13.093 310.73 5.11 310.65 C3.386 310.65 3.386 310.65 1.627 310.651 C-0.867 310.651 -3.36 310.644 -5.854 310.631 C-9.833 310.613 -13.811 310.615 -17.79 310.625 C-28.401 310.646 -39.011 310.641 -49.621 310.605 C-58.59 310.574 -67.559 310.571 -76.527 310.613 C-77.529 310.618 -77.529 310.618 -78.551 310.622 C-98.22 310.721 -116.508 312.026 -135.599 316.754 C-140.983 317.862 -145.675 318.131 -150.688 315.625 C-153.962 312.74 -156.041 310.545 -156.586 306.064 C-156.701 303.155 -156.712 300.261 -156.693 297.35 C-156.698 296.231 -156.703 295.112 -156.708 293.959 C-156.72 290.202 -156.71 286.445 -156.701 282.688 C-156.705 279.997 -156.71 277.307 -156.717 274.616 C-156.73 268.062 -156.727 261.508 -156.718 254.954 C-156.712 249.628 -156.711 244.301 -156.714 238.974 C-156.714 238.216 -156.715 237.458 -156.715 236.677 C-156.716 235.137 -156.717 233.597 -156.718 232.057 C-156.727 217.615 -156.717 203.172 -156.701 188.73 C-156.687 176.338 -156.69 163.947 -156.704 151.556 C-156.72 137.167 -156.726 122.778 -156.717 108.389 C-156.716 106.854 -156.715 105.32 -156.714 103.785 C-156.713 103.03 -156.713 102.275 -156.713 101.497 C-156.71 96.177 -156.714 90.857 -156.721 85.538 C-156.73 79.054 -156.728 72.57 -156.712 66.085 C-156.704 62.777 -156.702 59.469 -156.71 56.161 C-156.719 52.575 -156.708 48.989 -156.693 45.402 C-156.7 44.357 -156.707 43.312 -156.714 42.235 C-156.67 36.844 -156.392 32.946 -153.312 28.312 C-147.974 23.368 -141.238 22.759 -134.274 21.472 C-132.946 21.216 -131.618 20.959 -130.291 20.701 C-126.698 20.007 -123.102 19.33 -119.505 18.657 C-115.733 17.948 -111.963 17.224 -108.194 16.503 C-101.862 15.293 -95.529 14.094 -89.194 12.902 C-81.883 11.527 -74.575 10.136 -67.269 8.737 C-60.225 7.389 -53.18 6.049 -46.135 4.713 C-43.143 4.146 -40.152 3.577 -37.162 3.005 C-33.635 2.332 -30.107 1.666 -26.578 1.006 C-24.675 0.648 -22.774 0.283 -20.872 -0.082 C-5.695 -2.901 -5.695 -2.901 0 0 Z M-16.5 12.312 C-17.587 12.498 -18.673 12.684 -19.793 12.875 C-20.624 13.019 -21.456 13.164 -22.312 13.312 C-22.321 14.504 -22.329 15.696 -22.337 16.923 C-22.414 28.15 -22.502 39.377 -22.6 50.604 C-22.65 56.376 -22.696 62.148 -22.734 67.92 C-22.771 73.489 -22.818 79.059 -22.871 84.629 C-22.889 86.754 -22.904 88.88 -22.916 91.005 C-22.933 93.981 -22.962 96.957 -22.994 99.932 C-22.996 100.812 -22.998 101.692 -23 102.598 C-23.06 106.945 -23.286 110.355 -25.312 114.312 C-31.484 115.644 -31.484 115.644 -34.812 114.312 C-40.404 109.839 -45.089 104.537 -49.734 99.109 C-51.21 97.429 -52.641 95.8 -54.312 94.312 C-54.972 94.312 -55.632 94.312 -56.312 94.312 C-57.813 95.796 -57.813 95.796 -59.375 97.75 C-62.883 101.902 -66.667 105.671 -70.59 109.43 C-72.538 111.133 -72.538 111.133 -72.312 113.312 C-76.998 115.801 -80.264 115.322 -85.312 114.312 C-86.892 111.154 -86.492 107.753 -86.518 104.283 C-86.528 103.453 -86.538 102.624 -86.548 101.77 C-86.579 99.021 -86.604 96.272 -86.629 93.523 C-86.649 91.621 -86.67 89.718 -86.692 87.815 C-86.747 82.801 -86.797 77.787 -86.845 72.772 C-86.895 67.658 -86.951 62.544 -87.006 57.43 C-87.113 47.391 -87.215 37.352 -87.312 27.312 C-94.298 27.916 -101.159 28.871 -108.062 30.09 C-109.042 30.261 -110.022 30.433 -111.032 30.609 C-113.083 30.97 -115.133 31.332 -117.183 31.696 C-120.33 32.253 -123.479 32.798 -126.629 33.342 C-128.628 33.695 -130.626 34.048 -132.625 34.402 C-133.568 34.564 -134.51 34.725 -135.481 34.892 C-136.35 35.049 -137.218 35.205 -138.113 35.367 C-139.261 35.569 -139.261 35.569 -140.431 35.775 C-142.535 36.211 -142.535 36.211 -144.312 38.312 C-144.613 40.343 -144.613 40.343 -144.559 42.713 C-144.563 43.643 -144.567 44.574 -144.571 45.533 C-144.565 46.562 -144.559 47.591 -144.553 48.651 C-144.555 49.739 -144.556 50.827 -144.558 51.948 C-144.561 55.618 -144.55 59.288 -144.54 62.958 C-144.539 65.578 -144.539 68.199 -144.54 70.82 C-144.541 76.476 -144.535 82.131 -144.524 87.786 C-144.508 95.963 -144.502 104.139 -144.5 112.316 C-144.496 125.581 -144.482 138.846 -144.463 152.111 C-144.445 164.999 -144.431 177.887 -144.422 190.775 C-144.422 191.569 -144.421 192.363 -144.421 193.181 C-144.418 197.164 -144.416 201.147 -144.413 205.131 C-144.392 238.191 -144.357 271.252 -144.312 304.312 C-135.743 303.604 -135.743 303.604 -127.251 302.288 C-125.653 301.985 -125.653 301.985 -124.022 301.676 C-122.331 301.347 -122.331 301.347 -120.605 301.012 C-118.776 300.663 -118.776 300.663 -116.91 300.307 C-113.602 299.674 -110.296 299.037 -106.989 298.398 C-103.519 297.727 -100.048 297.063 -96.576 296.397 C-90.761 295.281 -84.946 294.161 -79.132 293.038 C-72.405 291.739 -65.678 290.447 -58.949 289.158 C-52.466 287.916 -45.984 286.669 -39.502 285.421 C-36.745 284.89 -33.989 284.361 -31.232 283.832 C-27.395 283.097 -23.561 282.356 -19.726 281.613 C-18.578 281.394 -17.43 281.175 -16.247 280.949 C-14.692 280.646 -14.692 280.646 -13.104 280.337 C-12.198 280.162 -11.291 279.988 -10.357 279.808 C-8.331 279.505 -8.331 279.505 -7.312 278.312 C-7.216 276.884 -7.189 275.451 -7.189 274.02 C-7.187 273.088 -7.185 272.155 -7.183 271.195 C-7.188 269.641 -7.188 269.641 -7.192 268.056 C-7.191 266.965 -7.191 265.874 -7.19 264.749 C-7.188 261.063 -7.194 257.376 -7.199 253.689 C-7.199 251.059 -7.199 248.428 -7.199 245.797 C-7.198 240.118 -7.201 234.439 -7.207 228.759 C-7.215 220.548 -7.217 212.337 -7.219 204.125 C-7.221 190.804 -7.228 177.483 -7.237 164.162 C-7.246 151.219 -7.253 138.276 -7.258 125.332 C-7.258 124.535 -7.258 123.738 -7.258 122.916 C-7.26 118.917 -7.261 114.917 -7.262 110.918 C-7.273 77.716 -7.29 44.514 -7.312 11.312 C-10.497 11.312 -13.363 11.773 -16.5 12.312 Z " fill="#3C986F" transform="translate(372.3125,5.6875)"/>
<path d="M0 0 C5.383 2.521 9.103 5.189 11.613 10.668 C12.751 14.432 13.208 17.068 11.43 20.668 C9.606 23.065 7.66 25.214 5.562 27.375 C-24.085 58.431 -40.05 101.744 -57.438 140.375 C-56.894 140.831 -56.351 141.287 -55.791 141.757 C-55.075 142.368 -54.359 142.98 -53.621 143.609 C-52.913 144.21 -52.204 144.81 -51.474 145.429 C-47.3 149.418 -43.705 154.767 -43.27 160.645 C-43.263 161.484 -43.257 162.323 -43.25 163.188 C-43.236 164.019 -43.222 164.85 -43.207 165.707 C-43.603 170.286 -44.397 173.371 -47.758 176.613 C-48.683 177.298 -49.609 177.982 -50.562 178.688 C-63.785 189.023 -72.188 201.815 -75.25 218.312 C-76.65 225.171 -78.182 230.449 -83.438 235.375 C-84.221 236.138 -85.005 236.901 -85.812 237.688 C-92.505 241.99 -98.909 243.399 -106.777 241.941 C-117.665 239.172 -126.595 233.016 -132.438 223.375 C-134.377 219.431 -134.763 216.131 -134.812 211.75 C-134.841 210.623 -134.869 209.497 -134.898 208.336 C-133.715 198.166 -128.494 189.224 -123.75 180.312 C-122.813 178.534 -121.879 176.754 -120.945 174.974 C-120.022 173.216 -119.098 171.458 -118.173 169.7 C-115.749 165.056 -113.394 160.379 -111.062 155.688 C-110.688 154.934 -110.313 154.18 -109.927 153.404 C-109.095 151.729 -108.266 150.052 -107.438 148.375 C-108.165 148.652 -108.892 148.929 -109.641 149.215 C-121.544 153.503 -133.475 155.306 -145.395 150.078 C-153.441 145.899 -160.251 140.71 -163.316 131.828 C-167.996 115.46 -166.616 99.217 -165 82.5 C-161.783 53.62 -161.783 53.62 -164.583 24.901 C-165.772 19.115 -165.056 14.707 -162.438 9.375 C-158.234 4.944 -153.384 3.33 -147.375 3 C-135.025 3.352 -122.521 9.426 -113.5 17.688 C-108.253 23.423 -105.213 29.379 -105.307 37.204 C-105.513 40.633 -106.251 43.907 -107.086 47.227 C-107.263 47.954 -107.44 48.682 -107.623 49.432 C-109.955 58.771 -112.9 67.926 -115.807 77.098 C-118.554 85.794 -121.176 94.31 -122.438 103.375 C-104.179 89.636 -96.026 63.699 -87.451 43.365 C-81.044 28.261 -71.786 9.384 -57.438 0.375 C-53.747 -0.634 -51.041 -0.586 -47.312 0.188 C-46.359 0.376 -45.405 0.564 -44.422 0.758 C-42.432 1.169 -40.443 1.581 -38.453 1.992 C-37.499 2.18 -36.545 2.369 -35.562 2.562 C-34.267 2.831 -34.267 2.831 -32.945 3.105 C-28.569 3.576 -26.056 2.8 -22.438 0.312 C-15.781 -3.647 -7.014 -2.522 0 0 Z " fill="#3C976E" transform="translate(923.4375,119.625)"/>
<path d="M0 0 C13.159 12.695 16.39 29.695 16.875 47.562 C15.916 81.803 2.837 115.898 -22.145 139.73 C-32.684 148.978 -44.475 153.958 -58.375 155.688 C-59.214 155.798 -60.053 155.909 -60.918 156.023 C-81.421 158.213 -107.137 159.431 -124.688 146.875 C-125.938 145.838 -127.167 144.774 -128.375 143.688 C-129.063 143.091 -129.752 142.494 -130.461 141.879 C-140.726 132.396 -143.913 120.112 -144.66 106.461 C-145.438 81.668 -139.334 57.773 -128.375 35.688 C-128.024 34.978 -127.673 34.268 -127.312 33.537 C-121.158 21.324 -112.093 6.26 -98.375 1.688 C-93.287 1.358 -88.375 1.662 -83.375 2.688 C-83.097 1.636 -83.097 1.636 -82.812 0.562 C-79.603 -5.857 -73.917 -8.852 -67.375 -11.312 C-44.626 -16.136 -18.383 -15.745 0 0 Z M-65.77 72.648 C-67.749 74.927 -69.576 77.265 -71.375 79.688 C-73.907 82.34 -76.337 84.658 -79.25 86.887 C-82.654 89.72 -84.696 92.86 -86.75 96.75 C-87.272 97.729 -87.272 97.729 -87.804 98.727 C-90.749 104.659 -91.463 110.104 -90.375 116.688 C-90.045 117.347 -89.715 118.007 -89.375 118.688 C-74.846 119.206 -74.846 119.206 -62.25 112.625 C-51.838 102.888 -49.24 90.772 -48.391 77.105 C-48.377 74.099 -48.645 71.59 -49.375 68.688 C-55.207 68.688 -61.119 68.84 -65.77 72.648 Z " fill="#3C976F" transform="translate(1830.375,124.3125)"/>
<path d="M0 0 C10.721 10.25 15.008 22.829 15.927 37.592 C16.707 75.113 7.161 109.254 -19.336 136.887 C-35.839 153.462 -56.171 156.761 -78.685 156.94 C-96.583 156.922 -112.439 155.807 -127.25 144.75 C-128.281 144.028 -129.312 143.306 -130.375 142.562 C-139.712 134.315 -143.518 122.158 -144.457 110.089 C-146.068 76.959 -136.806 38.899 -114.449 13.449 C-104.819 3.093 -104.819 3.093 -98.25 1.75 C-95.915 1.816 -93.582 1.924 -91.25 2.062 C-86.159 2.313 -86.159 2.313 -81.887 -0.098 C-80.584 -1.703 -79.313 -3.334 -78.074 -4.988 C-73.15 -11.093 -65.373 -11.892 -57.961 -12.731 C-37.253 -14.666 -16.598 -14.181 0 0 Z M-53.613 68.695 C-60.361 69.106 -63.97 70.914 -68.495 75.751 C-70.14 77.633 -71.742 79.543 -73.34 81.465 C-75.177 83.666 -76.341 84.803 -78.867 86.27 C-82.172 88.323 -83.635 91.169 -85.438 94.5 C-85.78 95.096 -86.122 95.691 -86.475 96.305 C-90.346 103.251 -91.706 108.94 -90.25 116.75 C-89.92 117.41 -89.59 118.07 -89.25 118.75 C-78.453 119.262 -71.166 118.694 -62.062 112.625 C-54.849 106.051 -49.747 95.024 -49.087 85.361 C-48.918 79.817 -49.041 74.291 -49.25 68.75 C-50.705 68.75 -52.159 68.729 -53.613 68.695 Z " fill="#3C976F" transform="translate(1667.25,124.25)"/>
<path d="M0 0 C1.331 0.25 2.663 0.5 3.994 0.749 C7.59 1.424 11.185 2.108 14.779 2.795 C17.785 3.369 20.792 3.939 23.8 4.509 C30.895 5.854 37.989 7.207 45.082 8.565 C52.389 9.964 59.699 11.347 67.011 12.723 C73.301 13.907 79.589 15.102 85.875 16.306 C89.624 17.023 93.374 17.736 97.126 18.439 C100.653 19.1 104.177 19.774 107.7 20.458 C109.603 20.824 111.509 21.177 113.414 21.529 C124.395 23.687 124.395 23.687 128.703 27.677 C132.364 33.194 132.127 38.336 132.09 44.722 C132.098 46.396 132.098 46.396 132.107 48.103 C132.121 51.843 132.114 55.583 132.107 59.323 C132.112 62.004 132.119 64.685 132.127 67.366 C132.145 73.892 132.146 80.418 132.14 86.945 C132.136 92.249 132.138 97.554 132.143 102.858 C132.144 103.613 132.145 104.368 132.145 105.146 C132.147 106.68 132.148 108.214 132.15 109.749 C132.164 124.131 132.158 138.514 132.147 152.897 C132.137 166.055 132.15 179.213 132.174 192.372 C132.198 205.884 132.208 219.397 132.201 232.91 C132.198 240.496 132.2 248.082 132.217 255.667 C132.232 262.124 132.233 268.58 132.215 275.037 C132.207 278.331 132.207 281.625 132.22 284.919 C132.233 288.49 132.222 292.06 132.204 295.631 C132.218 297.192 132.218 297.192 132.233 298.785 C132.173 304.596 131.681 308.116 127.703 312.677 C124.102 315.717 121.631 317.031 116.91 316.918 C114.258 316.628 111.771 316.03 109.181 315.388 C81.638 308.699 53.499 309.877 25.344 309.976 C14.389 310.013 3.433 310.005 -7.523 309.98 C-11.321 309.978 -15.118 309.995 -18.916 310.015 C-21.238 310.015 -23.56 310.015 -25.881 310.014 C-26.924 310.025 -27.967 310.036 -29.042 310.047 C-37.236 310.014 -44.266 308.708 -50.297 302.677 C-53.776 297.809 -56.415 293.577 -56.434 287.462 C-56.439 286.599 -56.445 285.735 -56.45 284.845 C-56.45 283.896 -56.451 282.946 -56.451 281.968 C-56.456 280.96 -56.46 279.952 -56.465 278.913 C-56.478 275.518 -56.484 272.124 -56.49 268.729 C-56.498 266.302 -56.506 263.874 -56.515 261.447 C-56.539 254.149 -56.554 246.852 -56.567 239.555 C-56.571 237.493 -56.575 235.431 -56.579 233.369 C-56.604 220.56 -56.626 207.752 -56.639 194.943 C-56.641 191.976 -56.644 189.009 -56.647 186.043 C-56.648 185.305 -56.649 184.568 -56.65 183.808 C-56.662 171.872 -56.696 159.935 -56.737 147.998 C-56.78 135.737 -56.803 123.477 -56.808 111.216 C-56.812 104.334 -56.824 97.453 -56.857 90.571 C-56.888 84.094 -56.893 77.617 -56.881 71.141 C-56.881 68.766 -56.889 66.392 -56.907 64.018 C-56.93 60.769 -56.921 57.522 -56.905 54.274 C-56.926 52.873 -56.926 52.873 -56.947 51.445 C-56.866 44.658 -55.126 39.32 -51.297 33.677 C-45.11 27.764 -39.841 25.577 -31.297 25.677 C-31.332 24.603 -31.367 23.529 -31.403 22.423 C-31.431 20.987 -31.458 19.55 -31.485 18.114 C-31.51 17.41 -31.535 16.705 -31.561 15.979 C-31.633 10.787 -30.731 7.285 -28.297 2.677 C-19.808 -5.191 -10.47 -2.01 0 0 Z M-17.297 10.677 C-18.864 12.244 -18.423 13.773 -18.423 15.951 C-18.426 16.879 -18.428 17.807 -18.431 18.763 C-18.429 19.795 -18.427 20.826 -18.424 21.889 C-18.426 22.975 -18.427 24.061 -18.429 25.181 C-18.433 28.851 -18.43 32.522 -18.427 36.192 C-18.428 38.812 -18.43 41.431 -18.432 44.05 C-18.437 50.444 -18.436 56.837 -18.433 63.231 C-18.43 68.425 -18.43 73.619 -18.431 78.813 C-18.431 79.551 -18.431 80.289 -18.432 81.049 C-18.432 82.548 -18.432 84.046 -18.433 85.545 C-18.435 99.614 -18.432 113.684 -18.427 127.753 C-18.422 139.838 -18.423 151.923 -18.428 164.009 C-18.433 178.026 -18.435 192.043 -18.432 206.061 C-18.432 207.554 -18.431 209.047 -18.431 210.54 C-18.431 211.275 -18.431 212.01 -18.431 212.767 C-18.43 217.958 -18.431 223.149 -18.434 228.339 C-18.437 235.319 -18.435 242.299 -18.429 249.279 C-18.427 251.849 -18.428 254.419 -18.43 256.989 C-18.433 260.481 -18.429 263.973 -18.424 267.465 C-18.427 268.496 -18.429 269.528 -18.431 270.59 C-18.428 271.518 -18.426 272.446 -18.423 273.402 C-18.423 274.209 -18.423 275.017 -18.423 275.848 C-18.497 277.696 -18.497 277.696 -17.297 278.677 C-14.682 279.233 -12.074 279.736 -9.444 280.208 C-8.619 280.36 -7.794 280.511 -6.944 280.667 C-5.14 280.998 -3.336 281.328 -1.532 281.656 C3.384 282.55 8.297 283.458 13.211 284.364 C14.238 284.553 15.265 284.743 16.323 284.938 C27.303 286.964 38.267 289.067 49.23 291.177 C51.179 291.551 53.127 291.925 55.076 292.3 C62.964 293.815 70.851 295.331 78.738 296.853 C83.676 297.806 88.614 298.755 93.553 299.701 C95.406 300.057 97.259 300.414 99.112 300.773 C101.661 301.266 104.211 301.755 106.761 302.243 C107.511 302.39 108.262 302.536 109.035 302.687 C112.349 303.316 115.311 303.677 118.703 303.677 C118.726 269.68 118.743 235.682 118.754 201.685 C118.755 197.676 118.756 193.666 118.758 189.657 C118.758 188.859 118.758 188.061 118.758 187.238 C118.763 174.296 118.771 161.354 118.78 148.412 C118.789 135.142 118.795 121.872 118.797 108.603 C118.798 100.408 118.802 92.213 118.811 84.018 C118.816 77.745 118.817 71.472 118.816 65.199 C118.816 62.618 118.818 60.036 118.822 57.455 C118.827 53.948 118.826 50.441 118.823 46.933 C118.826 45.897 118.829 44.861 118.832 43.794 C118.83 42.862 118.828 41.93 118.826 40.97 C118.826 39.754 118.826 39.754 118.827 38.513 C118.904 36.658 118.904 36.658 117.703 35.677 C115.01 35.121 112.324 34.618 109.617 34.146 C108.345 33.918 108.345 33.918 107.047 33.686 C105.194 33.355 103.341 33.026 101.488 32.698 C96.455 31.805 91.425 30.898 86.395 29.989 C85.347 29.8 84.3 29.611 83.22 29.416 C72.218 27.42 61.238 25.31 50.261 23.177 C49.307 22.991 48.352 22.806 47.369 22.615 C39.624 21.112 31.881 19.602 24.137 18.091 C18.247 16.942 12.357 15.796 6.466 14.652 C3.754 14.125 1.042 13.594 -1.669 13.063 C-3.305 12.746 -4.941 12.428 -6.577 12.11 C-7.32 11.964 -8.063 11.818 -8.828 11.667 C-11.706 11.111 -14.358 10.677 -17.297 10.677 Z " fill="#3C986F" transform="translate(76.29736328125,6.3232421875)"/>
<path d="M0 0 C0.302 1.057 0.603 2.114 0.914 3.203 C2.117 7.408 3.789 9.786 6.5 13.188 C10.869 18.712 13.538 22.291 13.357 29.407 C12.648 34.56 10.393 39.147 8.312 43.875 C7.287 46.303 6.266 48.732 5.25 51.164 C4.983 51.8 4.716 52.435 4.441 53.09 C-18.245 107.376 -35.5 164.472 -50.077 221.406 C-51.072 225.281 -52.075 229.154 -53.094 233.023 C-53.404 234.207 -53.714 235.391 -54.033 236.611 C-57.863 250.035 -64.172 259.422 -76 267 C-89.818 274.134 -89.818 274.134 -96.938 274.188 C-97.792 274.202 -98.647 274.216 -99.527 274.23 C-102.232 273.978 -103.767 273.542 -106 272 C-107.047 270.125 -107.047 270.125 -107.75 268 C-107.992 267.299 -108.235 266.598 -108.484 265.875 C-109 264 -109 264 -109 262 C-109.922 261.836 -109.922 261.836 -110.863 261.668 C-111.672 261.509 -112.48 261.351 -113.312 261.188 C-114.513 260.961 -114.513 260.961 -115.738 260.73 C-118.29 259.906 -119.353 259.093 -121 257 C-123.158 250.527 -121.636 244.581 -119.945 238.211 C-119.62 236.946 -119.62 236.946 -119.289 235.655 C-118.576 232.893 -117.851 230.134 -117.125 227.375 C-116.619 225.433 -116.114 223.491 -115.609 221.549 C-114.325 216.624 -113.029 211.701 -111.731 206.779 C-111.051 204.195 -110.378 201.61 -109.707 199.023 C-96.529 148.216 -80.695 96.947 -56.195 50.304 C-54.686 47.395 -53.222 44.465 -51.754 41.535 C-33.048 4.458 -33.048 4.458 -18.438 -1.438 C-12.078 -2.478 -5.984 -2.753 0 0 Z " fill="#3C976F" transform="translate(1963,12)"/>
<path d="M0 0 C4.01 3.697 6.331 7.823 6.789 13.25 C7.017 23.405 5.049 30.462 -1.797 38.074 C-4.337 40.158 -7.319 40.587 -10.449 41.43 C-11.711 43.792 -11.711 43.792 -12.449 46.43 C-17.469 52.994 -26.239 53.884 -33.887 55.242 C-41.189 56.67 -46.825 58.326 -52.449 63.43 C-53.043 63.908 -53.638 64.386 -54.25 64.879 C-61.816 71.539 -68.715 83.46 -70.449 93.43 C-70.449 98.344 -69.411 101.41 -66.047 105.078 C-61.125 109.242 -55.051 111.521 -48.66 111.605 C-47.247 111.641 -47.247 111.641 -45.805 111.678 C-43.841 111.72 -41.878 111.752 -39.914 111.771 C-32.181 111.997 -25.863 113.515 -19.887 118.617 C-17.713 122.87 -17.134 125.77 -18.449 130.43 C-27.974 147.315 -42.114 157.147 -60.449 162.805 C-78.713 167.506 -98.611 169.315 -115.668 160.105 C-127.52 152.964 -134.827 141.22 -138.793 128.148 C-145.545 100.175 -137.13 70.836 -122.641 46.734 C-106.042 21.704 -82.987 3.367 -53.449 -3.57 C-38.293 -6.621 -13.253 -9.592 0 0 Z " fill="#3C976F" transform="translate(1338.44921875,113.5703125)"/>
<path d="M0 0 C2 1 2 1 2 1 Z M-2 1 C-1.34 1.33 -0.68 1.66 0 2 C-2.31 4.31 -4.62 6.62 -7 9 C-7.66 8.67 -8.32 8.34 -9 8 C-6.667 5.667 -4.333 3.333 -2 1 Z " fill="#2B855E" transform="translate(1420,17)"/>
</svg>